<?xml version="1.0" encoding="UTF-8" standalone="no"?>
<svg width="16px" height="16px" viewBox="0 0 16 16" version="1.1" xmlns="http://www.w3.org/2000/svg" xmlns:xlink="http://www.w3.org/1999/xlink" xmlns:sketch="http://www.bohemiancoding.com/sketch/ns">
    <!-- Generator: Sketch 3.3.3 (12072) - http://www.bohemiancoding.com/sketch -->
    <title>logo</title>
    <desc>Created with Sketch.</desc>
    <defs></defs>
    <g id="Page-1" stroke="none" stroke-width="1" fill="none" fill-rule="evenodd" sketch:type="MSPage">
        <g id="noun_223963_cc" sketch:type="MSLayerGroup" fill="#000000">
            <path d="M15.2727111,11.6364444 L11.2727111,7.63644444 L13.0908444,5.81831111 L13.8181333,5.09102222 L14.5450667,4.36408889 C15.3486222,3.56053333 15.3484444,2.25795556 14.5448889,1.45475556 C13.7415111,0.651733333 12.4392889,0.651733333 11.6360889,1.45493333 L10.9091556,2.18186667 L10.1818667,2.90915556 L8.36355556,4.72728889 L4.36355556,0.727288889 L3.63626667,0 L2.90897778,0.727288889 L0.727288889,2.90915556 L0,3.63626667 L0.727288889,4.36355556 L1.63626667,5.27253333 L2,5.63626667 L3.09084444,6.72711111 L3.45457778,7.09066667 L4.54542222,8.18151111 L4.72728889,8.36337778 L2.90915556,10.1818667 L2.31217778,10.8728889 C2.06222222,11.1623111 1.87128889,11.4979556 1.7504,11.8606222 L1.20622222,13.4929778 L0.555555556,15.4444444 L2.50702222,14.7939556 L4.13937778,14.2499556 C4.50222222,14.1290667 4.83786667,13.9381333 5.12728889,13.688 L5.81831111,13.0910222 L7.63644444,11.2728889 L7.81831111,11.4547556 L8.90915556,12.5456 L9.27271111,12.9093333 L10.3635556,14.0001778 L10.7272889,14.3639111 L11.6362667,15.2728889 L12.3637333,16 L13.0910222,15.2727111 L15.2728889,13.0908444 L16,12.3637333 L15.2727111,11.6364444 L15.2727111,11.6364444 Z M12.3637333,2.18186667 C12.7653333,1.78008889 13.4165333,1.78008889 13.8183111,2.18186667 C14.2200889,2.58346667 14.2200889,3.23466667 13.8183111,3.63644444 L13.0910222,4.36373333 L11.6364444,2.90915556 L12.3637333,2.18186667 L12.3637333,2.18186667 Z M10.9089778,3.63626667 L10.9393778,3.66666667 L12.3635556,5.09084444 L10.5454222,6.90915556 L9.09084444,5.45457778 L10.9089778,3.63626667 L10.9089778,3.63626667 Z M2.18168889,13.8183111 L2.90897778,11.6364444 L4.36355556,13.0910222 L2.18168889,13.8183111 L2.18168889,13.8183111 Z M5.09084444,12.3637333 L3.63626667,10.9091556 L5.4544,9.09102222 L5.99982222,9.63644444 L6.36337778,10 L6.9088,10.5454222 L5.09084444,12.3637333 L5.09084444,12.3637333 Z M12.3637333,14.5454222 L11.4545778,13.6362667 L12.9091556,12.1816889 L12.5454222,11.8179556 L11.0908444,13.2725333 L10,12.1816889 L10.7272889,11.4544 L10.3635556,11.0906667 L9.63626667,11.8179556 L8.54542222,10.7271111 L9.27271111,9.99982222 L8.90915556,9.63626667 L8.18186667,10.3635556 L7.09102222,9.27271111 L8.5456,7.81813333 L8.18204444,7.45457778 L6.72746667,8.90915556 L5.63662222,7.81831111 L6.36391111,7.09102222 L6.00035556,6.72746667 L5.27306667,7.45475556 L4.18222222,6.36391111 L4.90951111,5.63662222 L4.54577778,5.27288889 L3.81848889,6.00017778 L2.72764444,4.90933333 L4.18222222,3.45475556 L3.81848889,3.09102222 L2.36391111,4.5456 L1.45475556,3.63644444 L3.63662222,1.45475556 L14.5456,12.3637333 L12.3637333,14.5454222 L12.3637333,14.5454222 Z" id="Shape" sketch:type="MSShapeGroup"></path>
        </g>
    </g>
</svg>